<svg width="25" height="25" viewBox="0 0 25 25" fill="none" xmlns="http://www.w3.org/2000/svg">
<path d="M23.68 1.11672L23.53 0.556717L22.97 0.406716C19.9738 -0.307563 16.83 -0.0770152 13.97 1.06672C12.5818 0.50783 11.0591 0.372935 9.59425 0.679073C8.12942 0.985211 6.78818 1.71865 5.74 2.78672L4.19 4.34672L6.39 4.49672C7.32101 4.61994 8.22022 4.91854 9.04 5.37672C7.83607 7.4467 7.07978 9.74622 6.82 12.1267C4.56 12.0167 1.24 12.7767 0.22 16.3367L0 17.1167L0.71 17.4967C2.02136 18.2423 3.42274 18.8169 4.88 19.2067C5.26977 20.664 5.84444 22.0654 6.59 23.3767L6.97 24.0867L7.75 23.8667C11.31 22.8667 12.07 19.5367 11.96 17.2667C14.3395 17.0023 16.6381 16.2463 18.71 15.0467C19.1659 15.8639 19.4644 16.7594 19.59 17.6867L19.71 19.9467L21.3 18.3567C22.3635 17.3099 23.0949 15.9727 23.4026 14.5125C23.7103 13.0523 23.5807 11.5337 23.03 10.1467C24.1715 7.2755 24.3985 4.12182 23.68 1.11672ZM21.01 10.4567C21.3596 11.2244 21.5405 12.0582 21.5405 12.9017C21.5405 13.7453 21.3596 14.579 21.01 15.3467C20.7057 14.5489 20.3133 13.7875 19.84 13.0767L19.26 12.1867L18.41 12.8267C16.1359 14.3661 13.4828 15.2516 10.74 15.3867L9.64 15.4867L9.85 16.5667C9.85 16.7367 10.54 20.3067 7.93 21.6467C7.34535 20.6006 6.93657 19.4654 6.72 18.2867L6.66 17.4167L5.79 17.3467C4.61421 17.131 3.48223 16.7222 2.44 16.1367C3.78 13.5567 7.35 14.1967 7.52 14.2167L8.6 14.4267L8.7 13.3267C8.83515 10.5839 9.72066 7.93085 11.26 5.65672L11.9 4.80672L11.01 4.22672C10.2992 3.75343 9.53786 3.361 8.74 3.05672C9.50771 2.70714 10.3415 2.52626 11.185 2.52626C12.0286 2.52626 12.8623 2.70714 13.63 3.05672L14.04 3.21672L14.43 3.01672C16.7703 1.99852 19.3641 1.71265 21.87 2.19672C22.3541 4.70263 22.0682 7.29638 21.05 9.63672L20.85 10.0267L21.01 10.4567Z" fill="black"/>
<path d="M19.52 5.02662C19.339 4.94268 19.137 4.91482 18.94 4.94662C18.8774 4.95756 18.8167 4.97778 18.76 5.00662C18.6963 5.0285 18.6357 5.05877 18.58 5.09662L18.43 5.21662C18.2425 5.41327 18.1386 5.67493 18.14 5.94662C18.1392 6.07822 18.1645 6.20869 18.2142 6.33052C18.264 6.45236 18.3373 6.56318 18.43 6.65662C18.5272 6.74495 18.6388 6.81597 18.76 6.86662C18.8797 6.91952 19.0091 6.94685 19.14 6.94685C19.2709 6.94685 19.4003 6.91952 19.52 6.86662C19.6441 6.8217 19.7568 6.75005 19.8501 6.65673C19.9434 6.56341 20.0151 6.45071 20.06 6.32662C20.116 6.20794 20.1434 6.07779 20.14 5.94662C20.1363 5.68185 20.0327 5.42825 19.85 5.23662C19.7528 5.14829 19.6412 5.07726 19.52 5.02662Z" fill="black"/>
</svg>
