<svg width="20" height="20" viewBox="0 0 20 20" fill="none" xmlns="http://www.w3.org/2000/svg">
<circle cx="10" cy="10" r="10" fill="#00A400"/>
<path d="M15.9747 4.61198L15.8925 4.30509L15.5857 4.22289C13.944 3.83145 12.2214 3.95779 10.6544 4.58458C9.89378 4.2783 9.05946 4.20438 8.25685 4.37215C7.45425 4.53992 6.71936 4.94185 6.14504 5.52718L5.29577 6.38209L6.50119 6.46429C7.01131 6.53182 7.504 6.69546 7.95317 6.94655C7.29352 8.08094 6.87913 9.34112 6.73679 10.6457C5.4985 10.5854 3.67942 11.0019 3.12054 12.9528L3 13.3803L3.38902 13.5885C4.10754 13.9971 4.87538 14.3121 5.67383 14.5257C5.8874 15.3243 6.20227 16.0923 6.61077 16.8109L6.81898 17.2L7.24636 17.0794C9.19694 16.5314 9.61336 14.7065 9.55309 13.4625C10.8569 13.3176 12.1163 12.9033 13.2515 12.2459C13.5013 12.6937 13.6649 13.1845 13.7337 13.6927L13.7994 14.9312L14.6706 14.0598C15.2534 13.4862 15.6541 12.7534 15.8227 11.9531C15.9913 11.1529 15.9203 10.3207 15.6185 9.5606C16.244 7.98712 16.3684 6.25884 15.9747 4.61198ZM14.5117 9.73049C14.7033 10.1512 14.8024 10.6081 14.8024 11.0704C14.8024 11.5327 14.7033 11.9896 14.5117 12.4103C14.345 11.9731 14.13 11.5558 13.8707 11.1663L13.5529 10.6786L13.0872 11.0293C11.8411 11.8729 10.3875 12.3582 8.88463 12.4322L8.28192 12.487L8.39698 13.0789C8.39698 13.1721 8.77504 15.1285 7.34498 15.8628C7.02464 15.2895 6.80067 14.6674 6.682 14.0215L6.64913 13.5447L6.17244 13.5063C5.5282 13.3881 4.90798 13.1641 4.33692 12.8432C5.07113 11.4294 7.02719 11.7801 7.12034 11.791L7.71209 11.9061L7.76688 11.3033C7.84093 9.80019 8.32611 8.34626 9.16954 7.09999L9.52021 6.63418L9.03257 6.31632C8.64313 6.05696 8.22596 5.8419 7.78879 5.67514C8.20943 5.48357 8.66626 5.38444 9.12845 5.38444C9.59065 5.38444 10.0475 5.48357 10.4681 5.67514L10.6928 5.76282L10.9064 5.65322C12.1888 5.09523 13.6099 4.93857 14.9829 5.20384C15.2482 6.57713 15.0915 7.99856 14.5337 9.28111L14.4241 9.49484L14.5117 9.73049Z" fill="white"/>
<path d="M13.6953 6.7547C13.5962 6.7087 13.4855 6.69344 13.3776 6.71086C13.3432 6.71686 13.31 6.72794 13.2789 6.74374C13.244 6.75574 13.2108 6.77232 13.1803 6.79306L13.0981 6.85883C12.9954 6.96659 12.9384 7.10999 12.9392 7.25888C12.9388 7.331 12.9526 7.4025 12.9799 7.46927C13.0072 7.53604 13.0473 7.59677 13.0981 7.64797C13.1514 7.69638 13.2125 7.73531 13.2789 7.76306C13.3445 7.79205 13.4154 7.80703 13.4871 7.80703C13.5588 7.80703 13.6298 7.79205 13.6953 7.76306C13.7633 7.73845 13.8251 7.69918 13.8762 7.64804C13.9273 7.5969 13.9666 7.53513 13.9912 7.46713C14.0219 7.40209 14.0369 7.33077 14.0351 7.25888C14.033 7.11378 13.9763 6.97481 13.8762 6.86979C13.8229 6.82138 13.7617 6.78245 13.6953 6.7547Z" fill="white"/>
</svg>
