<svg width="23" height="28" viewBox="0 0 23 28" fill="none" xmlns="http://www.w3.org/2000/svg">
<path d="M21.3522 9.29C20.5652 8.11679 19.4158 7.2334 18.0796 6.77476C16.7434 6.31611 15.2938 6.30742 13.9522 6.75L12.2122 7.39V0.39H10.2122V1.25C9.14302 0.45068 7.847 0.0128335 6.51216 0H5.51216V1C5.47061 2.34999 5.92636 3.66822 6.79282 4.70428C7.65928 5.74035 8.87611 6.42209 10.2122 6.62V7.39L8.47216 6.8C7.27834 6.40301 5.99438 6.36438 4.77886 6.6889C3.56334 7.01341 2.46949 7.68685 1.6324 8.62605C0.795313 9.56525 0.251654 10.7291 0.0685645 11.9738C-0.114525 13.2185 0.0709752 14.4895 0.602155 15.63L5.01216 25.05C5.23978 25.5286 5.56023 25.9571 5.95488 26.3108C6.34954 26.6644 6.81053 26.9361 7.31108 27.1101C7.81164 27.2841 8.34177 27.3569 8.8707 27.3243C9.39962 27.2916 9.91679 27.1542 10.3922 26.92C10.6464 26.7917 10.9273 26.7248 11.2122 26.7248C11.497 26.7248 11.7779 26.7917 12.0322 26.92C12.5821 27.1941 13.1877 27.3378 13.8022 27.34C14.2514 27.3413 14.6976 27.2669 15.1222 27.12C15.6219 26.9439 16.0818 26.6702 16.4749 26.3148C16.868 25.9594 17.1866 25.5295 17.4122 25.05L21.8222 15.58C22.2861 14.5783 22.4864 13.4748 22.4041 12.374C22.3219 11.2731 21.9598 10.2116 21.3522 9.29ZM7.70216 2.19C8.27832 2.33167 8.80471 2.62836 9.22425 3.0479C9.6438 3.46745 9.94049 3.99384 10.0822 4.57C9.50696 4.42631 8.98165 4.12895 8.56243 3.70973C8.1432 3.29051 7.84584 2.7652 7.70216 2.19ZM20.0122 14.74L15.6022 24.2C15.3713 24.6772 14.9603 25.0433 14.4597 25.2177C13.959 25.3921 13.4096 25.3605 12.9322 25.13C12.3969 24.867 11.8085 24.7302 11.2122 24.7302C10.6158 24.7302 10.0274 24.867 9.49216 25.13C9.01473 25.3605 8.46531 25.3921 7.96465 25.2177C7.46399 25.0433 7.05305 24.6772 6.82215 24.2L2.41216 14.74C2.04608 13.9542 1.91805 13.0784 2.04386 12.2207C2.16968 11.363 2.54383 10.5608 3.12016 9.91326C3.69649 9.26568 4.44979 8.80099 5.28712 8.57651C6.12445 8.35202 7.00918 8.37757 7.83216 8.65L10.0522 9.39H12.3722L14.5922 8.65C15.4151 8.37757 16.2999 8.35202 17.1372 8.57651C17.9745 8.80099 18.7278 9.26568 19.3042 9.91326C19.8805 10.5608 20.2546 11.363 20.3804 12.2207C20.5063 13.0784 20.3782 13.9542 20.0122 14.74Z" fill="black"/>
</svg>
