<svg width="20" height="20" viewBox="0 0 20 20" fill="none" xmlns="http://www.w3.org/2000/svg">
<circle cx="10" cy="10" r="10" fill="#00A400"/>
<path d="M15.5701 7.48529C15.1068 6.91886 14.4301 6.49235 13.6435 6.27091C12.8569 6.04948 12.0035 6.04528 11.2137 6.25896L10.1893 6.56796V3.1883H9.01194V3.60351C8.38253 3.21759 7.61956 3.0062 6.83373 3H6.24503V3.48281C6.22057 4.1346 6.48887 4.77105 6.99896 5.27127C7.50905 5.77149 8.2254 6.10064 9.01194 6.19619V6.56796L7.98759 6.2831C7.28479 6.09143 6.52892 6.07278 5.81333 6.22946C5.09775 6.38614 4.4538 6.71128 3.961 7.16473C3.4682 7.61819 3.14815 8.18009 3.04036 8.78104C2.93258 9.38199 3.04178 9.99568 3.35449 10.5463L5.95068 15.0944C6.08468 15.3254 6.27333 15.5323 6.50566 15.7031C6.738 15.8738 7.00939 16.005 7.30406 16.089C7.59874 16.173 7.91083 16.2081 8.22221 16.1924C8.53359 16.1766 8.83805 16.1103 9.1179 15.9972C9.26761 15.9353 9.43295 15.903 9.60064 15.903C9.76833 15.903 9.93367 15.9353 10.0834 15.9972C10.4071 16.1295 10.7637 16.1989 11.1254 16.2C11.3898 16.2006 11.6526 16.1647 11.9025 16.0938C12.1967 16.0087 12.4674 15.8766 12.6988 15.705C12.9303 15.5335 13.1178 15.3259 13.2506 15.0944L15.8468 10.5222C16.1199 10.0385 16.2378 9.50573 16.1894 8.97425C16.141 8.44277 15.9278 7.93025 15.5701 7.48529ZM7.53429 4.05735C7.87348 4.12575 8.18337 4.26899 8.43035 4.47155C8.67734 4.67411 8.852 4.92826 8.9354 5.20644C8.59678 5.13706 8.28753 4.99349 8.04073 4.79109C7.79394 4.58868 7.61888 4.33506 7.53429 4.05735ZM14.7812 10.1166L12.185 14.684C12.0491 14.9144 11.8072 15.0911 11.5125 15.1753C11.2177 15.2595 10.8943 15.2443 10.6132 15.133C10.2981 15.006 9.95172 14.94 9.60064 14.94C9.24956 14.94 8.90316 15.006 8.58807 15.133C8.30701 15.2443 7.98356 15.2595 7.68882 15.1753C7.39408 15.0911 7.15216 14.9144 7.01623 14.684L4.42005 10.1166C4.20453 9.7372 4.12916 9.31437 4.20323 8.90025C4.2773 8.48614 4.49756 8.09886 4.83685 7.78621C5.17614 7.47355 5.61961 7.24919 6.11255 7.14081C6.60549 7.03243 7.12633 7.04477 7.61082 7.1763L8.91774 7.53357H10.2835L11.5905 7.1763C12.0749 7.04477 12.5958 7.03243 13.0887 7.14081C13.5817 7.24919 14.0251 7.47355 14.3644 7.78621C14.7037 8.09886 14.924 8.48614 14.998 8.90025C15.0721 9.31437 14.9967 9.7372 14.7812 10.1166Z" fill="white"/>
</svg>
