<svg width="28" height="24" viewBox="0 0 28 24" fill="none" xmlns="http://www.w3.org/2000/svg">
<path d="M0 0V20H28V0H0ZM26 18H2V2H26V18Z" fill="black"/>
<path d="M10 22H4V24H10V22Z" fill="black"/>
<path d="M24 22H18V24H24V22Z" fill="black"/>
<path d="M22.5 9C22.9945 9 23.4778 8.85338 23.8889 8.57868C24.3 8.30397 24.6205 7.91353 24.8097 7.45671C24.9989 6.9999 25.0484 6.49723 24.952 6.01228C24.8555 5.52732 24.6174 5.08187 24.2678 4.73223C23.9181 4.3826 23.4727 4.1445 22.9877 4.04804C22.5028 3.95157 22.0001 4.00108 21.5433 4.1903C21.0865 4.37952 20.696 4.69995 20.4213 5.11108C20.1466 5.5222 20 6.00555 20 6.5C20 7.16304 20.2634 7.79893 20.7322 8.26777C21.2011 8.73661 21.837 9 22.5 9ZM22.5 6C22.5989 6 22.6956 6.02933 22.7778 6.08427C22.86 6.13921 22.9241 6.2173 22.9619 6.30866C22.9998 6.40002 23.0097 6.50056 22.9904 6.59755C22.9711 6.69454 22.9235 6.78363 22.8536 6.85356C22.7836 6.92348 22.6945 6.9711 22.5975 6.99039C22.5006 7.00969 22.4 6.99978 22.3087 6.96194C22.2173 6.9241 22.1392 6.86001 22.0843 6.77779C22.0293 6.69556 22 6.59889 22 6.5C22 6.36739 22.0527 6.24022 22.1464 6.14645C22.2402 6.05268 22.3674 6 22.5 6Z" fill="black"/>
<path d="M22.5 16C22.9945 16 23.4778 15.8534 23.8889 15.5787C24.3 15.304 24.6205 14.9135 24.8097 14.4567C24.9989 13.9999 25.0484 13.4972 24.952 13.0123C24.8555 12.5273 24.6174 12.0819 24.2678 11.7322C23.9181 11.3826 23.4727 11.1445 22.9877 11.048C22.5028 10.9516 22.0001 11.0011 21.5433 11.1903C21.0865 11.3795 20.696 11.7 20.4213 12.1111C20.1466 12.5222 20 13.0055 20 13.5C20 14.163 20.2634 14.7989 20.7322 15.2678C21.2011 15.7366 21.837 16 22.5 16ZM22.5 13C22.5989 13 22.6956 13.0293 22.7778 13.0843C22.86 13.1392 22.9241 13.2173 22.9619 13.3087C22.9998 13.4 23.0097 13.5006 22.9904 13.5975C22.9711 13.6945 22.9235 13.7836 22.8536 13.8536C22.7836 13.9235 22.6945 13.9711 22.5975 13.9904C22.5006 14.0097 22.4 13.9998 22.3087 13.9619C22.2173 13.9241 22.1392 13.86 22.0843 13.7778C22.0293 13.6956 22 13.5989 22 13.5C22 13.3674 22.0527 13.2402 22.1464 13.1464C22.2402 13.0527 22.3674 13 22.5 13Z" fill="black"/>
<path d="M18 4H4V16H18V4ZM16 14H6V6H16V14Z" fill="black"/>
</svg>
