<svg width="20" height="20" viewBox="0 0 20 20" fill="none" xmlns="http://www.w3.org/2000/svg">
<circle cx="10" cy="10" r="10" fill="#00A400"/>
<path d="M3 5V15H17V5H3ZM16 14H4V6H16V14Z" fill="white"/>
<path d="M8 16H5V17H8V16Z" fill="white"/>
<path d="M15 16H12V17H15V16Z" fill="white"/>
<path d="M14.25 9.5C14.4972 9.5 14.7389 9.42669 14.9445 9.28934C15.15 9.15199 15.3102 8.95676 15.4048 8.72835C15.4995 8.49995 15.5242 8.24861 15.476 8.00614C15.4277 7.76366 15.3087 7.54093 15.1339 7.36612C14.9591 7.1913 14.7363 7.07225 14.4939 7.02402C14.2514 6.97579 14.0001 7.00054 13.7716 7.09515C13.5432 7.18976 13.348 7.34998 13.2107 7.55554C13.0733 7.7611 13 8.00277 13 8.25C13 8.58152 13.1317 8.89946 13.3661 9.13388C13.6005 9.3683 13.9185 9.5 14.25 9.5ZM14.25 8C14.2994 8 14.3478 8.01466 14.3889 8.04213C14.43 8.0696 14.462 8.10865 14.481 8.15433C14.4999 8.20001 14.5048 8.25028 14.4952 8.29877C14.4855 8.34727 14.4617 8.39181 14.4268 8.42678C14.3918 8.46174 14.3473 8.48555 14.2988 8.4952C14.2503 8.50484 14.2 8.49989 14.1543 8.48097C14.1086 8.46205 14.0696 8.43001 14.0421 8.38889C14.0147 8.34778 14 8.29945 14 8.25C14 8.1837 14.0263 8.12011 14.0732 8.07322C14.1201 8.02634 14.1837 8 14.25 8Z" fill="white"/>
<path d="M14.25 13C14.4972 13 14.7389 12.9267 14.9445 12.7893C15.15 12.652 15.3102 12.4568 15.4048 12.2284C15.4995 11.9999 15.5242 11.7486 15.476 11.5061C15.4277 11.2637 15.3087 11.0409 15.1339 10.8661C14.9591 10.6913 14.7363 10.5723 14.4939 10.524C14.2514 10.4758 14.0001 10.5005 13.7716 10.5952C13.5432 10.6898 13.348 10.85 13.2107 11.0555C13.0733 11.2611 13 11.5028 13 11.75C13 12.0815 13.1317 12.3995 13.3661 12.6339C13.6005 12.8683 13.9185 13 14.25 13ZM14.25 11.5C14.2994 11.5 14.3478 11.5147 14.3889 11.5421C14.43 11.5696 14.462 11.6086 14.481 11.6543C14.4999 11.7 14.5048 11.7503 14.4952 11.7988C14.4855 11.8473 14.4617 11.8918 14.4268 11.9268C14.3918 11.9617 14.3473 11.9856 14.2988 11.9952C14.2503 12.0048 14.2 11.9999 14.1543 11.981C14.1086 11.962 14.0696 11.93 14.0421 11.8889C14.0147 11.8478 14 11.7994 14 11.75C14 11.6837 14.0263 11.6201 14.0732 11.5732C14.1201 11.5263 14.1837 11.5 14.25 11.5Z" fill="white"/>
<path d="M12 7H5V13H12V7ZM11 12H6V8H11V12Z" fill="white"/>
</svg>
