<svg width="20" height="20" viewBox="0 0 20 20" fill="none" xmlns="http://www.w3.org/2000/svg">
<circle cx="10" cy="10" r="10" fill="#00A400"/>
<path d="M15.1089 4.09249C14.763 3.74618 14.352 3.47143 13.8996 3.28396C13.4472 3.09649 12.9622 3 12.4724 3C11.9826 3 11.4976 3.09649 11.0452 3.28396C10.5928 3.47143 10.1818 3.74618 9.83588 4.09249L7.95226 5.96867C7.45535 6.46517 7.10922 7.09198 6.95386 7.77667C6.7985 8.46135 6.84026 9.17597 7.07431 9.83796L5.9037 11.0126L5.74939 10.9116C5.54866 10.7475 5.31549 10.6277 5.06515 10.5599C4.81482 10.4921 4.55297 10.4779 4.29677 10.5183C4.07808 10.5877 3.87695 10.7034 3.70708 10.8575C3.5372 11.0116 3.40258 11.2004 3.3124 11.4112C2.83351 12.3041 2.99314 12.8941 3.2113 13.2342C3.62633 13.872 4.53089 14.0368 5.12684 14.074C5.16409 14.6693 5.32904 15.5728 5.96755 15.9874C6.19028 16.1282 6.44889 16.202 6.71248 16.2C7.08745 16.1834 7.45273 16.0757 7.77667 15.8864C7.98934 15.7946 8.17945 15.6577 8.33382 15.4851C8.48819 15.3126 8.6031 15.1085 8.67059 14.8872C8.71081 14.6276 8.69506 14.3625 8.6244 14.1095C8.55374 13.8565 8.4298 13.6215 8.26088 13.4202C8.22895 13.3777 8.19171 13.3193 8.15978 13.2661L9.34103 12.1128C10.0042 12.35 10.7212 12.3946 11.4087 12.2413C12.0963 12.0879 12.7262 11.743 13.2253 11.2464L15.1089 9.36493C15.4548 9.01945 15.7292 8.60929 15.9164 8.15788C16.1036 7.70646 16.2 7.22264 16.2 6.73403C16.2 6.24542 16.1036 5.76159 15.9164 5.31018C15.7292 4.85876 15.4548 4.44861 15.1089 4.10312V4.09249ZM7.26586 12.6708C6.8189 13.1226 7.17008 13.67 7.38292 13.9996C7.5053 14.1909 7.69686 14.4779 7.65961 14.6161C7.65961 14.648 7.60108 14.7702 7.29247 14.935C7.09559 15.0413 6.73377 15.1954 6.54753 15.0785C6.2602 14.8925 6.15378 14.0793 6.19103 13.5637L6.22828 12.9578L5.62169 12.995C5.08959 13.0322 4.29145 12.9259 4.10522 12.6389C3.98816 12.4529 4.14246 12.1074 4.24888 11.8948C4.41383 11.5866 4.53621 11.5387 4.56814 11.5281C4.70648 11.4909 4.99382 11.6822 5.18537 11.8045C5.51527 12.0171 6.06333 12.3732 6.51561 11.9214L7.6064 10.8265C7.71322 10.9714 7.8306 11.1082 7.95758 11.2358C8.08219 11.3623 8.21749 11.4779 8.36198 11.5813L7.26586 12.6708ZM14.3534 8.59957L12.4751 10.4811C12.0871 10.8728 11.5868 11.1344 11.0434 11.2296C10.5 11.3249 9.94044 11.249 9.44213 11.0126C9.17032 10.8873 8.92197 10.7166 8.70784 10.5076C8.48706 10.2916 8.30685 10.0378 8.17574 9.75823C7.94268 9.26239 7.86871 8.70672 7.96396 8.16727C8.05921 7.62782 8.31902 7.13095 8.70784 6.74466L10.5915 4.86848C10.9632 4.49832 11.4362 4.24627 11.951 4.14404C12.4658 4.04181 12.9994 4.09398 13.4846 4.29398C13.9698 4.49397 14.385 4.83286 14.6778 5.26799C14.9706 5.70312 15.128 6.21505 15.1302 6.73934C15.131 7.08542 15.0626 7.42817 14.9293 7.74757C14.7959 8.06697 14.6001 8.35662 14.3534 8.59957Z" fill="white"/>
<path d="M11.3311 5.59663L12.0866 6.34604C12.1863 6.24705 12.3212 6.19148 12.4618 6.19148C12.6023 6.19148 12.7372 6.24705 12.8369 6.34604L13.5872 5.59663C13.2839 5.3056 12.8797 5.14307 12.4591 5.14307C12.0386 5.14307 11.6343 5.3056 11.3311 5.59663Z" fill="white"/>
<path d="M10.9695 5.97278L9.46451 7.47607L10.217 8.22772L11.722 6.72443L10.9695 5.97278Z" fill="white"/>
</svg>
