<svg width="25" height="25" viewBox="0 0 25 25" fill="none" xmlns="http://www.w3.org/2000/svg">
<path d="M22.7571 2.05551C22.1069 1.40393 21.3346 0.886979 20.4843 0.534266C19.6341 0.181553 18.7226 0 17.8021 0C16.8816 0 15.9701 0.181553 15.1199 0.534266C14.2696 0.886979 13.4973 1.40393 12.8471 2.05551L9.30711 5.58551C8.37323 6.51967 7.72272 7.69899 7.43075 8.98722C7.13877 10.2754 7.21725 11.62 7.65711 12.8655L5.45711 15.0755L5.16711 14.8855C4.78986 14.5768 4.35165 14.3513 3.88118 14.2238C3.41071 14.0963 2.9186 14.0696 2.43711 14.1455C2.02611 14.2761 1.64811 14.4938 1.32885 14.7837C1.0096 15.0736 0.756602 15.429 0.587106 15.8255C-0.312894 17.5055 -0.0128939 18.6155 0.397106 19.2555C1.17711 20.4555 2.87711 20.7655 3.99711 20.8355C4.06711 21.9555 4.37711 23.6555 5.57711 24.4355C5.99569 24.7005 6.48171 24.8394 6.97711 24.8355C7.68181 24.8043 8.36829 24.6018 8.97711 24.2455C9.37678 24.0728 9.73408 23.8152 10.0242 23.4906C10.3143 23.1659 10.5303 22.782 10.6571 22.3655C10.7327 21.8772 10.7031 21.3783 10.5703 20.9023C10.4375 20.4263 10.2046 19.9842 9.88711 19.6055C9.82711 19.5255 9.75711 19.4155 9.69711 19.3155L11.9171 17.1455C13.1635 17.592 14.511 17.6758 15.8031 17.3873C17.0952 17.0988 18.279 16.4497 19.2171 15.5155L22.7571 11.9755C23.4072 11.3255 23.9229 10.5538 24.2747 9.70446C24.6265 8.85513 24.8076 7.94482 24.8076 7.02551C24.8076 6.1062 24.6265 5.19589 24.2747 4.34656C23.9229 3.49724 23.4072 2.72553 22.7571 2.07551V2.05551ZM8.01711 18.1955C7.17711 19.0455 7.83711 20.0755 8.23711 20.6955C8.46711 21.0555 8.82711 21.5955 8.75711 21.8555C8.75711 21.9155 8.64711 22.1455 8.06711 22.4555C7.69711 22.6555 7.01711 22.9455 6.66711 22.7255C6.12711 22.3755 5.92711 20.8455 5.99711 19.8755L6.06711 18.7355L4.92711 18.8055C3.92711 18.8755 2.42711 18.6755 2.07711 18.1355C1.85711 17.7855 2.14711 17.1355 2.34711 16.7355C2.65711 16.1555 2.88711 16.0655 2.94711 16.0455C3.20711 15.9755 3.74711 16.3355 4.10711 16.5655C4.72711 16.9655 5.75711 17.6355 6.60711 16.7855L8.65711 14.7255C8.85786 14.9981 9.07846 15.2554 9.31711 15.4955C9.55129 15.7336 9.80556 15.9511 10.0771 16.1455L8.01711 18.1955ZM21.3371 10.5355L17.8071 14.0755C17.078 14.8126 16.1377 15.3048 15.1165 15.484C14.0953 15.6631 13.0436 15.5204 12.1071 15.0755C11.5963 14.8399 11.1295 14.5186 10.7271 14.1255C10.3122 13.719 9.97351 13.2415 9.72711 12.7155C9.2891 11.7826 9.15009 10.7371 9.32909 9.72213C9.5081 8.70716 9.99638 7.77231 10.7271 7.04551L14.2671 3.51551C14.9657 2.81906 15.8547 2.34483 16.8223 2.15249C17.7898 1.96015 18.7926 2.0583 19.7044 2.4346C20.6163 2.81089 21.3965 3.4485 21.9468 4.26719C22.4971 5.08588 22.793 6.04906 22.7971 7.03551C22.7985 7.68665 22.6701 8.33153 22.4194 8.93248C22.1687 9.53343 21.8008 10.0784 21.3371 10.5355Z" fill="black"/>
<path d="M15.6571 4.8856L17.0771 6.2956C17.2645 6.10935 17.5179 6.00481 17.7821 6.00481C18.0463 6.00481 18.2997 6.10935 18.4871 6.2956L19.8971 4.8856C19.3272 4.33803 18.5675 4.03223 17.7771 4.03223C16.9867 4.03223 16.227 4.33803 15.6571 4.8856Z" fill="black"/>
<path d="M14.9776 5.5932L12.1492 8.42163L13.5634 9.83584L16.3918 7.00742L14.9776 5.5932Z" fill="black"/>
</svg>
