<svg width="20" height="20" viewBox="0 0 20 20" fill="none" xmlns="http://www.w3.org/2000/svg">
<circle cx="10" cy="10" r="10" fill="#00A400"/>
<path d="M15.708 6.71486L13.908 5.66829L13.8 5.59286V3H5.4V5.66357L3 8.02071V16.2H12.144L12.6 16.0209L16.2 14.6066V7.00714L15.708 6.71486ZM14.322 7.07786L13.038 7.41729L13.464 6.57343L14.322 7.07786ZM6.6 3.94286H12.6V5.35714H6.6V3.94286ZM6.288 6.3H12.288L11.568 7.71429H4.848L6.288 6.3ZM11.4 15.2571H4.2V8.65714H11.4V15.2571ZM15 14.022L12.6 14.9649V8.52514L15 7.89814V14.022Z" fill="white"/>
</svg>
