<svg width="20" height="20" viewBox="0 0 20 20" fill="none" xmlns="http://www.w3.org/2000/svg">
<circle cx="10" cy="10" r="10" fill="#00A400"/>
<path d="M15.6585 7.05737L15.4646 6.78788C15.2812 6.50345 15.0303 6.26953 14.7346 6.10727C14.4388 5.94502 14.1076 5.85954 13.7708 5.85859H13.1662C13.1128 5.62408 13.019 5.40078 12.8892 5.19879L12.6954 4.92929C12.512 4.64487 12.2611 4.41094 11.9654 4.24869C11.6696 4.08643 11.3384 4.00096 11.0015 4H6.22923C5.89258 4.00179 5.56162 4.08762 5.26601 4.2498C4.9704 4.41198 4.71936 4.64545 4.53538 4.92929L4.34154 5.22202C4.12384 5.54789 4.00516 5.93055 4 6.32323V7.06202C4.0016 7.60523 4.21547 8.12598 4.59538 8.51172C4.80337 8.72151 4.92107 9.00522 4.92308 9.30162V14.6869H7.69231V16.5455H15.0769V11.1602C15.0789 10.8638 15.1966 10.5801 15.4046 10.3703C15.7845 9.98457 15.9984 9.46381 16 8.92061V8.18182C15.998 7.78142 15.8792 7.39043 15.6585 7.05737ZM5.84615 13.7576V9.30162C5.84455 8.75841 5.63068 8.23766 5.25077 7.85192C5.04279 7.64213 4.92509 7.35842 4.92308 7.06202V6.32323C4.92521 6.10813 4.98934 5.89829 5.10769 5.71919L5.30154 5.42646C5.40349 5.27304 5.54153 5.14736 5.70338 5.06062C5.86523 4.97388 6.04587 4.92877 6.22923 4.92929H11.0015C11.1846 4.92963 11.3647 4.97564 11.5258 5.06321C11.6869 5.15079 11.8239 5.27719 11.9246 5.43111L12.1138 5.71455C12.2342 5.89498 12.3014 6.10599 12.3077 6.32323V7.06202C12.3057 7.35842 12.188 7.64213 11.98 7.85192C11.6001 8.23766 11.3862 8.75841 11.3846 9.30162V13.7576H5.84615ZM15.0769 8.92061C15.0749 9.217 14.9572 9.50071 14.7492 9.71051C14.3693 10.0962 14.1554 10.617 14.1538 11.1602V15.6162H8.61538V14.6869H12.3077V9.30162C12.3097 9.00522 12.4274 8.72151 12.6354 8.51172C13.0153 8.12598 13.2292 7.60523 13.2308 7.06202V6.78788H13.7708C13.9538 6.78822 14.134 6.83423 14.2951 6.9218C14.4561 7.00937 14.5932 7.13577 14.6938 7.2897L14.8877 7.57313C15.0071 7.75373 15.0727 7.96492 15.0769 8.18182V8.92061Z" fill="white"/>
</svg>
