<svg width="26" height="27" viewBox="0 0 26 27" fill="none" xmlns="http://www.w3.org/2000/svg">
<path d="M25.26 6.58L24.84 6C24.4427 5.38786 23.8991 4.88442 23.2583 4.53522C22.6175 4.18601 21.8998 4.00206 21.17 4H19.86C19.7443 3.4953 19.5413 3.01473 19.26 2.58L18.84 2C18.4427 1.38786 17.8991 0.884423 17.2583 0.535218C16.6175 0.186014 15.8998 0.00206161 15.17 0H4.83C4.10058 0.00385011 3.38351 0.18857 2.74302 0.537613C2.10252 0.886656 1.55861 1.38912 1.16 2L0.74 2.63C0.26833 3.33134 0.0111878 4.15489 0 5V6.59C0.00347126 7.75908 0.466859 8.87983 1.29 9.71C1.74063 10.1615 1.99564 10.7721 2 11.41V23H8V27H24V15.41C24.0044 14.7721 24.2594 14.1615 24.71 13.71C25.5331 12.8798 25.9965 11.7591 26 10.59V9C25.9956 8.13827 25.7383 7.2968 25.26 6.58ZM4 21V11.41C3.99653 10.2409 3.53314 9.12017 2.71 8.29C2.25937 7.83849 2.00436 7.22789 2 6.59V5C2.00461 4.53707 2.14357 4.08545 2.4 3.7L2.82 3.07C3.04089 2.7398 3.33998 2.46932 3.69066 2.28264C4.04134 2.09596 4.43273 1.99887 4.83 2H15.17C15.5667 2.00073 15.9569 2.09975 16.306 2.28822C16.655 2.47669 16.9518 2.74873 17.17 3.08L17.58 3.69C17.8407 4.07832 17.9863 4.53246 18 5V6.59C17.9956 7.22789 17.7406 7.83849 17.29 8.29C16.4669 9.12017 16.0035 10.2409 16 11.41V21H4ZM24 10.59C23.9956 11.2279 23.7406 11.8385 23.29 12.29C22.4669 13.1202 22.0035 14.2409 22 15.41V25H10V23H18V11.41C18.0044 10.7721 18.2594 10.1615 18.71 9.71C19.5331 8.87983 19.9965 7.75908 20 6.59V6H21.17C21.5667 6.00073 21.9569 6.09975 22.306 6.28822C22.655 6.47669 22.9518 6.74873 23.17 7.08L23.59 7.69C23.8487 8.07868 23.9909 8.53319 24 9V10.59Z" fill="black"/>
</svg>
