<svg width="27" height="27" viewBox="0 0 27 27" fill="none" xmlns="http://www.w3.org/2000/svg">
<path d="M14.49 20.15L20.15 14.49C20.7309 13.9029 21.1159 13.1503 21.252 12.3356C21.3881 11.5209 21.2686 10.6841 20.91 9.94L26.16 9.19L16.97 0L16.22 5.25C15.4759 4.89141 14.6391 4.77195 13.8244 4.90803C13.0097 5.0441 12.2571 5.42905 11.67 6.01L6.01 11.67C5.42905 12.2571 5.0441 13.0097 4.90803 13.8244C4.77195 14.6391 4.89141 15.4759 5.25 16.22L0 16.97L9.19 26.16L9.94 20.91C10.6841 21.2686 11.5209 21.3881 12.3356 21.252C13.1503 21.1159 13.9029 20.7309 14.49 20.15ZM21.92 7.78L19.44 8.13L18.08 6.72L18.43 4.24L21.92 7.78ZM15.92 7.42L18.75 10.25C18.9836 10.4869 19.1544 10.7783 19.2469 11.0978C19.3394 11.4174 19.3508 11.755 19.28 12.08H8.42L13.08 7.42C13.2657 7.23405 13.4863 7.08653 13.7291 6.98588C13.9719 6.88523 14.2322 6.83343 14.495 6.83343C14.7578 6.83343 15.0181 6.88523 15.2609 6.98588C15.5037 7.08653 15.7243 7.23405 15.91 7.42H15.92ZM6.88 14.08H17.74L13.08 18.74C12.8943 18.926 12.6737 19.0735 12.4309 19.1741C12.1881 19.2748 11.9278 19.3266 11.665 19.3266C11.4022 19.3266 11.1419 19.2748 10.8991 19.1741C10.6563 19.0735 10.4357 18.926 10.25 18.74L7.42 15.91C7.18467 15.6741 7.01201 15.3831 6.91771 15.0635C6.8234 14.744 6.81044 14.4059 6.88 14.08ZM6.36 20.5L4.24 18.38L6.72 18.08L8.13 19.49L7.78 21.97L6.36 20.5Z" fill="black"/>
</svg>
