<svg width="20" height="20" viewBox="0 0 20 20" fill="none" xmlns="http://www.w3.org/2000/svg">
<circle cx="10" cy="10" r="10" fill="#00A400"/>
<path d="M10.7546 13.7836L13.7836 10.7546C14.0945 10.4404 14.3006 10.0376 14.3734 9.60162C14.4462 9.16562 14.3823 8.71777 14.1904 8.31957L17 7.9182L12.0818 3L11.6804 5.80963C11.2822 5.61772 10.8344 5.55379 10.3984 5.62662C9.96239 5.69944 9.55963 5.90545 9.24541 6.21636L6.21636 9.24541C5.90545 9.55963 5.69944 9.96239 5.62662 10.3984C5.55379 10.8344 5.61772 11.2822 5.80963 11.6804L3 12.0818L7.9182 17L8.31957 14.1904C8.71777 14.3823 9.16562 14.4462 9.60162 14.3734C10.0376 14.3006 10.4404 14.0945 10.7546 13.7836ZM14.7309 7.16361L13.4037 7.35092L12.6758 6.59633L12.8631 5.26911L14.7309 7.16361ZM11.5199 6.97095L13.0344 8.48547C13.1594 8.61225 13.2508 8.7682 13.3003 8.93921C13.3499 9.11022 13.3559 9.29088 13.318 9.46483H7.50612L10 6.97095C10.0994 6.87143 10.2175 6.79248 10.3474 6.73862C10.4773 6.68476 10.6166 6.65703 10.7573 6.65703C10.8979 6.65703 11.0372 6.68476 11.1671 6.73862C11.2971 6.79248 11.4151 6.87143 11.5145 6.97095H11.5199ZM6.68196 10.5352H12.4939L10 13.0291C9.90059 13.1286 9.78255 13.2075 9.65261 13.2614C9.52267 13.3152 9.3834 13.343 9.24274 13.343C9.10208 13.343 8.9628 13.3152 8.83286 13.2614C8.70293 13.2075 8.58488 13.1286 8.48547 13.0291L6.97095 11.5145C6.84501 11.3883 6.75261 11.2326 6.70214 11.0615C6.65167 10.8905 6.64473 10.7096 6.68196 10.5352ZM6.40367 13.9709L5.26911 12.8364L6.59633 12.6758L7.35092 13.4304L7.16361 14.7576L6.40367 13.9709Z" fill="white"/>
</svg>
