<svg width="20" height="20" viewBox="0 0 20 20" fill="none" xmlns="http://www.w3.org/2000/svg">
<circle cx="10" cy="10" r="10" fill="#00A400"/>
<path d="M16.596 7.38718C16.0137 6.81625 15.26 6.45239 14.4508 6.35155L15.8335 4.97451L15.0255 4.1665L13.6484 5.54923C13.5476 4.74 13.1838 3.9863 12.6128 3.40401L12.2088 3L11.8105 3.40401C11.4696 3.74586 11.2007 4.15268 11.0199 4.60034C10.8391 5.048 10.75 5.5274 10.7578 6.01014C10.4615 5.9192 10.1508 5.88446 9.84168 5.90771C9.46717 5.93741 9.10379 6.04916 8.77731 6.23502C8.45082 6.42088 8.16923 6.6763 7.95252 6.98317L4.288 12.1044C3.92756 12.602 3.7563 13.2118 3.80496 13.8244C3.85362 14.4369 4.11901 15.012 4.5535 15.4465C4.98799 15.881 5.56311 16.1464 6.17564 16.195C6.78816 16.2437 7.39798 16.0724 7.89561 15.712L13.0168 12.0475C13.3237 11.8308 13.5791 11.5492 13.765 11.2227C13.9508 10.8962 14.0626 10.5328 14.0923 10.1583C14.1155 9.84923 14.0808 9.53852 13.9899 9.2422H14.1321C15.0579 9.21449 15.9386 8.83618 16.596 8.18381L17 7.78549L16.596 7.38718ZM12.2088 4.7469C12.4135 5.06719 12.5223 5.43938 12.5223 5.81952C12.5223 6.19965 12.4135 6.57184 12.2088 6.89213C12.0067 6.57087 11.8995 6.19905 11.8995 5.81952C11.8995 5.43998 12.0067 5.06816 12.2088 4.7469ZM5.38053 14.6309C5.13859 14.388 4.99043 14.0674 4.96231 13.7258C4.93418 13.3841 5.02792 13.0436 5.22689 12.7645L6.85999 10.4884L7.78181 11.4216L8.57844 10.6079L7.50868 9.53809L8.86295 7.64324C8.98538 7.47227 9.14337 7.32983 9.32607 7.22571C9.50877 7.12159 9.71184 7.05826 9.92134 7.04007H10.0408C10.4253 7.04101 10.7937 7.19451 11.0651 7.46684L11.3951 7.79687L11.7991 8.19519L12.1974 8.5992L12.5275 8.92923C12.7632 9.16002 12.9114 9.46557 12.9467 9.79359C12.982 10.1216 12.9022 10.4517 12.7209 10.7274L11.4236 9.40152L10.6155 10.2038L11.8845 11.4728L8.12891 14.1529L7.38349 13.4245L6.57548 14.2268L7.1445 14.7959C6.87307 14.9718 6.55029 15.0512 6.2282 15.0213C5.90612 14.9914 5.6035 14.8538 5.36915 14.6309H5.38053ZM13.1193 7.80257C13.4395 7.59784 13.8117 7.48905 14.1919 7.48905C14.572 7.48905 14.9442 7.59784 15.2645 7.80257C14.9434 8.00068 14.5732 8.10465 14.1959 8.10264C13.8187 8.10063 13.4496 7.99271 13.1306 7.79118L13.1193 7.80257Z" fill="white"/>
</svg>
