<svg width="24" height="24" viewBox="0 0 24 24" fill="none" xmlns="http://www.w3.org/2000/svg">
<path d="M22.4932 7.71C21.4698 6.70665 20.1453 6.06721 18.7232 5.89L21.1532 3.47L19.7332 2.05L17.3132 4.48C17.1359 3.05787 16.4965 1.73331 15.4932 0.71L14.7832 0L14.0832 0.71C13.484 1.31078 13.0116 2.02571 12.6938 2.81242C12.376 3.59914 12.2194 4.44164 12.2332 5.29C11.7124 5.13018 11.1663 5.06913 10.6232 5.11C9.965 5.1622 9.3264 5.35857 8.75264 5.6852C8.17887 6.01183 7.68401 6.46071 7.30315 7L0.863154 16C0.229723 16.8745 -0.0712493 17.9462 0.0142647 19.0227C0.0997786 20.0991 0.566179 21.1098 1.32974 21.8734C2.0933 22.637 3.10403 23.1034 4.18048 23.1889C5.25693 23.2744 6.32861 22.9734 7.20315 22.34L16.2032 15.9C16.7424 15.5191 17.1913 15.0243 17.518 14.4505C17.8446 13.8768 18.041 13.2382 18.0932 12.58C18.134 12.0368 18.073 11.4908 17.9132 10.97H18.1632C19.7901 10.9213 21.3378 10.2565 22.4932 9.11L23.2032 8.41L22.4932 7.71ZM14.7832 3.07C15.1429 3.63288 15.3341 4.28696 15.3341 4.955C15.3341 5.62304 15.1429 6.27712 14.7832 6.84C14.428 6.27543 14.2395 5.622 14.2395 4.955C14.2395 4.288 14.428 3.63457 14.7832 3.07ZM2.78315 20.44C2.35797 20.0133 2.0976 19.4498 2.04818 18.8494C1.99875 18.249 2.16348 17.6505 2.51315 17.16L5.38315 13.16L7.00315 14.8L8.40315 13.37L6.52315 11.49L8.90315 8.16C9.1183 7.85953 9.39596 7.60921 9.71703 7.42623C10.0381 7.24326 10.395 7.13196 10.7632 7.1H10.9732C11.6488 7.10166 12.2962 7.3714 12.7732 7.85L13.3532 8.43L14.0632 9.13L14.7632 9.84L15.3432 10.42C15.7575 10.8256 16.0179 11.3626 16.0799 11.939C16.142 12.5155 16.0017 13.0956 15.6832 13.58L13.4032 11.25L11.9832 12.66L14.2132 14.89L7.61315 19.6L6.30315 18.32L4.88315 19.73L5.88315 20.73C5.40614 21.0392 4.83888 21.1788 4.27285 21.1261C3.70683 21.0735 3.17501 20.8318 2.76315 20.44H2.78315ZM16.3832 8.44C16.946 8.08021 17.6001 7.88903 18.2682 7.88903C18.9362 7.88903 19.5903 8.08021 20.1532 8.44C19.5889 8.78817 18.9383 8.97088 18.2753 8.96735C17.6123 8.96381 16.9636 8.77416 16.4032 8.42L16.3832 8.44Z" fill="black"/>
</svg>
