<svg width="20" height="20" viewBox="0 0 20 20" fill="none" xmlns="http://www.w3.org/2000/svg">
<circle cx="10" cy="10" r="10" fill="#00A400"/>
<path d="M14.6139 12.9208L17 10.5542L16.0255 5.25178L13.7549 3H9.02802V3.99857H13.343L15.0911 5.74108L15.915 10.2346L14.4532 11.6676L14.1568 9.30098C14.1178 9.00616 13.9914 8.72954 13.7937 8.50636C13.596 8.28318 13.336 8.12354 13.0467 8.04777V7.49357C13.0467 7.22873 12.9408 6.97474 12.7524 6.78747C12.564 6.6002 12.3085 6.495 12.042 6.495C12.042 6.09774 11.8832 5.71675 11.6006 5.43585C11.318 5.15495 10.9347 4.99714 10.535 4.99714C10.1353 4.99714 9.75203 5.15495 9.46941 5.43585C9.1868 5.71675 9.02802 6.09774 9.02802 6.495C8.76157 6.495 8.50603 6.6002 8.31762 6.78747C8.12921 6.97474 8.02336 7.22873 8.02336 7.49357V8.04777C7.73335 8.12387 7.47279 8.28426 7.27502 8.5084C7.07725 8.73255 6.95127 9.01025 6.91321 9.30597L6.81275 10.0799L5.37609 8.64692C5.1841 8.45252 4.93773 8.32 4.66898 8.26658C4.40024 8.21315 4.12154 8.24129 3.8691 8.34734C3.61089 8.44762 3.38948 8.62358 3.23426 8.85188C3.07904 9.08017 2.99736 9.34999 3.00006 9.62551C2.99714 9.99882 3.1435 10.358 3.40695 10.6241L6.37572 13.5749L6.15972 15.3174C6.13325 15.529 6.15256 15.7438 6.21634 15.9474C6.28013 16.1511 6.38693 16.3388 6.5296 16.4981C6.67227 16.6574 6.84751 16.7846 7.04361 16.8711C7.23971 16.9577 7.45215 17.0016 7.66671 17H13.4134C13.6279 17.0016 13.8404 16.9577 14.0365 16.8711C14.2326 16.7846 14.4078 16.6574 14.5505 16.4981C14.6931 16.3388 14.7999 16.1511 14.8637 15.9474C14.9275 15.7438 14.9468 15.529 14.9204 15.3174L14.6139 12.9208ZM10.535 5.99571C10.6682 5.99571 10.796 6.04831 10.8902 6.14195C10.9844 6.23558 11.0373 6.36258 11.0373 6.495H10.0327C10.0327 6.36258 10.0856 6.23558 10.1798 6.14195C10.274 6.04831 10.4018 5.99571 10.535 5.99571ZM9.02802 7.49357H12.042V7.99285H9.02802V7.49357ZM4.24082 9.27102C4.28981 9.24901 4.34279 9.23712 4.39654 9.23607C4.43982 9.22941 4.48387 9.22941 4.52715 9.23607L4.02482 9.73536C4.01721 9.69242 4.01721 9.64848 4.02482 9.60554C4.025 9.53512 4.04543 9.46622 4.0837 9.40695C4.12197 9.34768 4.17648 9.30052 4.24082 9.27102ZM4.71301 10.4893L5.26055 9.94506L6.65703 11.3331L6.56661 12.0371L6.51637 12.2967L4.71301 10.4893ZM13.7951 15.8117C13.7475 15.8656 13.6887 15.9086 13.6229 15.9379C13.557 15.9672 13.4855 15.982 13.4134 15.9814H7.65666C7.5853 15.9819 7.51465 15.9673 7.44941 15.9386C7.38418 15.9098 7.32585 15.8676 7.27833 15.8147C7.2308 15.7618 7.19516 15.6994 7.17378 15.6317C7.1524 15.5641 7.14577 15.4926 7.15433 15.4222L7.27992 14.4486L7.59136 11.9522L7.90783 9.42081C7.92263 9.29903 7.98203 9.18693 8.07468 9.10589C8.16733 9.02485 8.28675 8.98055 8.41016 8.98144H12.6599C12.7825 8.9804 12.9013 9.024 12.9938 9.10402C13.0864 9.18404 13.1463 9.29494 13.1622 9.41581L13.9157 15.4072C13.9265 15.4793 13.9213 15.5529 13.9005 15.6227C13.8797 15.6926 13.8437 15.7571 13.7951 15.8117Z" fill="white"/>
<path d="M3.32658 7.49353H4.33124C4.32699 7.3764 4.36433 7.26151 4.43673 7.169C4.60283 6.92085 4.68871 6.62819 4.68287 6.3302C4.68832 6.03381 4.60243 5.74286 4.43673 5.49639C4.3632 5.40254 4.32579 5.28569 4.33124 5.16686C4.32699 5.04973 4.36433 4.93485 4.43673 4.84233C4.60382 4.59277 4.68974 4.29822 4.68287 3.99854H3.67821C3.68246 4.11567 3.64512 4.23055 3.57272 4.32307C3.40662 4.57122 3.32074 4.86388 3.32658 5.16187C3.32393 5.45787 3.40958 5.74802 3.57272 5.99568C3.64512 6.08819 3.68246 6.20308 3.67821 6.32021C3.68246 6.43734 3.64512 6.55223 3.57272 6.64475C3.40464 6.89571 3.31867 7.19215 3.32658 7.49353Z" fill="white"/>
</svg>
