<svg width="20" height="21" viewBox="0 0 20 21" fill="none" xmlns="http://www.w3.org/2000/svg">
<circle cx="10" cy="10.7968" r="10" fill="#00A400"/>
<path d="M16.596 8.18402C16.0137 7.61309 15.26 7.24924 14.4508 7.1484L15.8335 5.77136L15.0255 4.96334L13.6484 6.34607C13.5476 5.53684 13.1838 4.78314 12.6128 4.20085L12.2088 3.79684L11.8105 4.20085C11.4696 4.54271 11.2007 4.94952 11.0199 5.39718C10.8391 5.84484 10.75 6.32424 10.7578 6.80698C10.4615 6.71604 10.1508 6.6813 9.84168 6.70456C9.46717 6.73426 9.10379 6.846 8.77731 7.03186C8.45082 7.21772 8.16923 7.47315 7.95252 7.78001L4.288 12.9012C3.92756 13.3989 3.7563 14.0087 3.80496 14.6212C3.85362 15.2337 4.11901 15.8089 4.5535 16.2433C4.98799 16.6778 5.56311 16.9432 6.17564 16.9919C6.78816 17.0405 7.39798 16.8693 7.89561 16.5088L13.0168 12.8443C13.3237 12.6276 13.5791 12.346 13.765 12.0195C13.9508 11.6931 14.0626 11.3297 14.0923 10.9552C14.1155 10.6461 14.0808 10.3354 13.9899 10.039H14.1321C15.0579 10.0113 15.9386 9.63303 16.596 8.98066L17 8.58234L16.596 8.18402ZM12.2088 5.54375C12.4135 5.86404 12.5223 6.23623 12.5223 6.61636C12.5223 6.99649 12.4135 7.36868 12.2088 7.68897C12.0067 7.36771 11.8995 6.9959 11.8995 6.61636C11.8995 6.23682 12.0067 5.86501 12.2088 5.54375ZM5.38053 15.4277C5.13859 15.1849 4.99043 14.8642 4.96231 14.5226C4.93418 14.181 5.02792 13.8404 5.22689 13.5613L6.85999 11.2852L7.78181 12.2184L8.57844 11.4047L7.50868 10.3349L8.86295 8.44008C8.98538 8.26911 9.14337 8.12667 9.32607 8.02255C9.50877 7.91843 9.71184 7.8551 9.92134 7.83692H10.0408C10.4253 7.83786 10.7937 7.99135 11.0651 8.26369L11.3951 8.59372L11.7991 8.99204L12.1974 9.39604L12.5275 9.72608C12.7632 9.95687 12.9114 10.2624 12.9467 10.5904C12.982 10.9185 12.9022 11.2485 12.7209 11.5242L11.4236 10.1984L10.6155 11.0007L11.8845 12.2696L8.12891 14.9497L7.38349 14.2214L6.57548 15.0237L7.1445 15.5927C6.87307 15.7687 6.55029 15.8481 6.2282 15.8181C5.90612 15.7882 5.6035 15.6507 5.36915 15.4277H5.38053ZM13.1193 8.59941C13.4395 8.39468 13.8117 8.28589 14.1919 8.28589C14.572 8.28589 14.9442 8.39468 15.2645 8.59941C14.9434 8.79752 14.5732 8.9015 14.1959 8.89948C13.8187 8.89747 13.4496 8.78956 13.1306 8.58803L13.1193 8.59941Z" fill="white"/>
</svg>
