<svg width="18" height="18" viewBox="0 0 18 18" fill="none" xmlns="http://www.w3.org/2000/svg">
<path d="M3.85716 9.74991C3.85716 6.90961 6.1597 4.60709 9.00002 4.60709C10.2162 4.60709 11.3338 5.02926 12.2143 5.73505C12.5096 5.97176 12.7782 6.24036 13.0149 6.53564" stroke="#00A400" stroke-width="1.5"/>
<path d="M9 1.49997C13.5564 1.49997 17.25 5.19366 17.25 9.74997C17.25 12.1911 16.1886 14.382 14.502 15.8935H3.49805C1.81142 14.382 0.750018 12.1911 0.75 9.74997C0.75 5.19366 4.44364 1.49997 9 1.49997Z" stroke="black" stroke-width="1.5"/>
<path d="M11.9124 8.04014C11.5015 8.8051 11.0701 9.58759 10.6957 10.2236C10.5082 10.542 10.3387 10.8174 10.1957 11.0329C10.0433 11.2627 9.94938 11.3814 9.91122 11.4196C9.44484 11.8857 8.65952 11.8927 8.15657 11.3899C7.65363 10.887 7.66075 10.1017 8.12688 9.63527C8.16503 9.59712 8.28317 9.50251 8.51289 9.35008C8.72837 9.2071 9.00383 9.03755 9.3222 8.85013C9.95817 8.47576 10.7408 8.04432 11.5057 7.63342C11.8014 7.47457 12.0939 7.31936 12.373 7.17214C12.2257 7.45131 12.0713 7.74429 11.9124 8.04014Z" stroke="black" stroke-width="1.5"/>
</svg>
